<?xml version="1.0" encoding="utf-8"?>
<!-- Generator: Adobe Illustrator 24.0.3, SVG Export Plug-In . SVG Version: 6.00 Build 0)  -->
<svg version="1.1" id="Layer_1" xmlns="http://www.w3.org/2000/svg" xmlns:xlink="http://www.w3.org/1999/xlink" x="0px" y="0px"
	 viewBox="0 0 80.6 128" style="enable-background:new 0 0 80.6 128;" xml:space="preserve">
<style type="text/css">
	.st0{fill:#053636;}
	.st1{fill:#F2B690;}
	.st2{fill:#F15B29;}
</style>
<g>
	<path class="st0" d="M0,98.8c0.1,0,0.2,0.1,0.3,0.1h0C0.2,98.8,0.1,98.8,0,98.8"/>
	<path class="st0" d="M0.4,98.9C0.4,98.9,0.3,98.9,0.4,98.9L0.4,98.9C0.3,98.9,0.4,98.9,0.4,98.9"/>
	<path class="st0" d="M72,75.5l-2.1-25.3c-0.3-2.1-0.4-6.4-0.7-10.7c0,0,0,0-0.1,0c0-0.2,0-0.5,0-0.7c-0.3-5.5-0.4-11.6-1.5-14.3
		c-0.2-0.7-0.9-1.9-1.7-2.3c-0.2-0.1-0.3-0.2-0.8-0.2c-0.6,0-0.9,0.3-1.2,0.6c-0.7,0.6-1,1.5-1.3,2.3c-0.2,0.7-0.4,1.5-0.5,2.3
		c-0.1,0.7-0.1,0.8-0.2,1.5c-0.3,2.9,1.3,25.6-0.8,32.5c-0.2,0.5-0.9,0.6-1.2,0.2c-1.9-3.1,0.2-36.9-2.1-49.1
		c-0.4-2.2-1.1-6-3.3-5.9c-2.2,0.1-3,4.1-3.2,5.7c-0.5,3.8-0.7,38.1-0.7,38.1c0,0,0.1,6-0.4,6.7c-0.3,0.4-0.9,0.2-1.3-0.1
		c-0.5-0.4-0.5-1.4-0.5-1.4c0,0-1.4-46.5-2-49.9c-0.3-1.4-1-3.7-1.7-4.5c-0.9-1.2-2.4-1.3-3.6-0.7c-1.1,0.5-1.9,1.8-2.3,3
		c-0.3,1.1-0.6,2.6-0.8,4c-0.2,2.2-0.4,3.7-0.4,4.9c-0.2,3.8,0.1,37.6,0.2,41.4c0.1,3.6-1,3.2-1,3.2c-0.9-0.1-1.3-3.6-1.4-5.4
		c-0.2-2.9-1.7-35.6-2.7-38.9c-0.2-0.6-0.7-2.8-1.7-3.3C31,9.1,30.8,9,30.5,8.9c-0.3-0.1-0.6-0.1-0.8-0.1c-0.4,0-0.7,0.1-1.2,0.4
		c-1.4,0.9-1.9,3.8-2.2,5.1c-0.4,1.7-0.5,3.4-0.6,5.1c-0.1,2.9,0.4,35.8,0.3,37.2c-0.1,1.6-0.2,3-0.5,4.6c-1,5.6-1.6,6.6-1.9,7.5
		c-0.1,0.2-0.4,0.4-0.6,0.2c-2.2-1.6-4.2-11.4-8.6-16c-0.4-0.5-1.2-1.4-2.3-2.1c-1-0.7-2.1-1.2-3.8-1c-0.3,0-0.5,0.1-0.7,0.1
		c-1,0.3-1.4,1.4-1.1,2.3c0.1,0.2,0.3,0.6,0.6,1.6c0.1,0.3,0.4,1.1,0.4,1.2c0.4,0.8,0.8,2.8,0.8,2.8c0.2,1,0.4,1.7,0.7,2.4
		c0.1,0.2,0.1,0.3,0.2,0.4c0.2,0.3,0.3,0.6,0.5,1c0.3,0.9,0.6,1.9,0.9,2.8c0.3,0.9,0.6,2.6,0.8,3.4c0.1,0.3,0.1,0.6,0.2,0.8
		c0.3,0.8,0.5,1.6,0.7,2.4c0.3,1,0.6,2.1,0.9,3.1c0.6,2.1,1.8,7,1.8,7.1c0.3,1,0.5,1.7,0.8,2.6c0,0,0,0.1,0,0.1
		c0.2,0.5,1.7,3.7,2.1,4.6c1.3,3.4,3.2,7,5.5,10.6c1.5,2.3,3.4,4.3,4.8,6.4c3.7,5.6,3.8,16.2,3.9,18.1c0,0.5,0.3,1,0.7,1.2
		c3.1,1.8,8.2,3,13.9,3c3.1,0,6-0.4,8.5-1c0,0,0,0,0,0c0.1,0,0.1,0,0.2,0c0.3-0.1,0.6-0.2,0.9-0.2c1.3-0.4,2.6-0.8,3.5-1.3
		c0.4-0.3,0.7-0.7,0.7-1.2c0.1-0.8,0.1-3.6,0.6-6.8c0.5-3.4,1.1-6.3,2-9.2c0.3-0.8,0.9-2.1,1.3-2.8c1.6-2.6,4-7.9,4.1-8.1
		c1.3-3.3,2.2-6.1,2.6-9c0.4-2.1,0.6-4.4,0.8-8.1C72,79.2,72,77.5,72,75.5"/>
	<path class="st0" d="M61.3,78.9c-3.7-2.4-5.5-3.6-6.2-3.9c-3-1.2-5.4-1.3-8.7-1.4c-2.6-0.1-4.3-0.2-6.6,0.4
		c-2.7,0.6-4.3,1.6-7.6,3.5c-2.2,1.3-1.8,2-2,2.9C30,81,29,82.1,30.5,83.7c1.4,1.5,8,8.1,17.5,6.8c1.8-0.2,5.1-2,11.8-5.5
		c2.2-1.1,4.3-2.3,4.2-3.7C63.9,80.6,63.2,80.1,61.3,78.9"/>
	<path class="st1" d="M45.8,78.4c0,0.1,0,0.2,0.1,0.3c0,0,0,0.1,0,0.1c0,0,0,0.1,0,0.1c0,0,0,0.1,0.1,0.1c0,0,0,0,0.1,0
		c0,0,0.1,0,0.1,0c0.1,0,0.2,0,0.3,0h0.2c0,0,0.1,0,0.1,0c0.1,0,0.1,0,0.2,0h0h0h0c0.1,0,0.3,0,0.4,0c0.3,0,0.2,0,0.6,0
		c0.3,0,0.8-0.1,0.9-0.4c0.2-0.2,0.3-0.4,0.4-0.5c0.2-0.3,0.6-1.1,0.8-1.6c-0.8,0.1-3.4,0.4-4.3,0.5c0,0.2,0,0.5,0,0.6
		C45.7,78,45.8,78.2,45.8,78.4"/>
	<path class="st1" d="M36.8,78.4C36.8,78.4,36.8,78.4,36.8,78.4c0,0,0.1,0.1,0.1,0.1c0.1,0,0.2,0.1,0.3,0.1c0.1,0,0.2,0,0.3,0
		c0.1,0,0.2,0,0.3,0c0.1,0,0.2,0,0.3,0c0.1,0,0.2,0,0.3,0c0.1,0,0.2,0,0.3,0c0,0,0.1,0,0.1,0c0.1,0,0.2-0.1,0.3-0.2c0,0,0,0,0-0.1
		c0,0,0-0.1,0-0.2c0-0.1,0-0.3,0-0.5c0-0.1,0-0.8,0-1c0-0.1,0-0.1,0-0.2c0,0,0,0,0,0c-1.1-0.1-2.6,0.2-3.1,0.7c0,0,0,0-0.1,0
		c0.1,0.3,0.2,0.8,0.4,1C36.7,78.2,36.7,78.3,36.8,78.4"/>
	<path class="st1" d="M40.1,78.1c0,0.1,0,0.2,0,0.3c0,0.4,0.4,0.5,0.8,0.5c0.2,0,0.4,0,0.4,0c0.9,0,1.7,0,2.6,0c0,0,0.1,0,0.2,0
		c0.1,0,0.3,0,0.4,0c0.1,0,0.1,0,0.2,0c0.1,0,0.2-0.1,0.2-0.3c0-0.1,0-0.3,0-0.4c0-0.3-0.1-1-0.1-1.5c-1.2,0-3.7-0.4-4.6-0.7
		C40.2,76.8,40.1,78,40.1,78.1C40.1,78,40.1,78.1,40.1,78.1 M44.1,78.9c-0.9,0-1.8,0-2.7,0C42.3,78.9,43.2,78.9,44.1,78.9"/>
	<path class="st1" d="M41.3,79c1,0,1.9,0,2.9,0C43.2,79,42.3,79,41.3,79"/>
	<path class="st0" d="M54.7,85.3L54.7,85.3l0.4-0.7c0.6-1,0.9-2.9,0.7-5.6c0-0.2,0-0.5-0.1-0.7l0-0.1c0-0.3-0.1-0.7-0.2-1.1
		c0-0.2-0.1-0.4-0.1-0.4c0,0,0,0,0,0c0,0,0,0,0,0c0,0,0,0,0-0.1c-0.1-0.1-0.1-0.1-0.2-0.1c-0.1,0-0.2,0.1-0.2,0.1c0,0.4,0,1,0,1.6
		c0.2,2.4,0.5,5.8-1.8,7.8c0,0-0.1,0.1-0.1,0.1c0.1-0.1,0.3-0.2,0.4-0.4C54.7,85.3,54.7,85.3,54.7,85.3l0.2-0.1l0,0L54.7,85.3z"/>
	<path class="st2" d="M55.4,76.7C55.4,76.7,55.4,76.8,55.4,76.7C55.4,76.8,55.4,76.8,55.4,76.7C55.4,76.7,55.4,76.7,55.4,76.7"/>
	<path class="st2" d="M50.2,76.3c0,0,0,0-0.2,0c-0.2,0-0.4,0.1-0.6,0.1c-0.1,0-0.1,0-0.2,0c-0.1,0-0.1,0-0.2,0c0,0,0,0,0,0
		c-0.1,0-0.1,0-0.2,0c-0.1,0-0.2,0-0.4,0.1c-0.3,0-0.7,0.1-1.1,0.1c-0.2,0-0.4,0-0.6,0l-0.1,0c-0.2,0-0.5,0-0.8,0c0,0,0,0.2,0,0.3
		c1-0.1,3.5-0.4,4.3-0.5C50.1,76.5,50.2,76.4,50.2,76.3"/>
	<path class="st2" d="M46.2,71.3C46.2,71.3,46.1,71.3,46.2,71.3c-0.1,0-0.1,0-0.1,0C46.1,71.3,46.1,71.3,46.2,71.3
		C46.1,71.3,46.2,71.3,46.2,71.3"/>
	<path class="st2" d="M39.4,76.4c0-0.1,0-0.2,0-0.3c0-0.1,0-0.1,0-0.1c-0.1,0-0.3,0-0.4-0.1c-0.4-0.1-0.8-0.1-1.2-0.1
		c-0.1,0-0.2,0-0.3,0.1c-0.4,0.2-0.8,0.4-1.2,0.6c0,0-0.2,0.1-0.2,0.1c0,0,0,0.1,0,0.2c0,0.1,0,0.2,0.1,0.3c0,0,0,0,0.1,0
		C36.8,76.6,38.3,76.3,39.4,76.4 M36.3,76.7c0,0,0.1-0.1,0.1-0.1C36.4,76.6,36.3,76.6,36.3,76.7c0,0,0,0.1,0,0.1
		C36.3,76.7,36.3,76.7,36.3,76.7"/>
	<path class="st2" d="M44.9,76.8C44.9,76.8,44.9,76.7,44.9,76.8c-0.1,0-0.3,0-0.4,0c-0.1,0-0.3,0-0.4,0c-0.7,0-1.3-0.1-1.9-0.2
		s-1.2-0.3-1.7-0.4c-0.1,0-0.1,0-0.2,0c0,0,0,0-0.1,0c0,0,0,0,0,0c0,0.1,0,0.2,0,0.4c0.9,0.2,3.5,0.6,4.8,0.6
		C44.9,77,44.9,76.9,44.9,76.8"/>
	<path class="st2" d="M53.5,85.8c-0.1,0.1-0.3,0.3-0.4,0.4c0,0.1-0.1,0.1-0.2,0.1c0.2-0.1,0.4-0.1,0.6-0.2c0.3-0.1,0.6-0.2,0.9-0.3
		l0.5-0.5l-0.3,0.1C54.7,85.3,54.7,85.3,53.5,85.8"/>
	<path class="st2" d="M49,76.4C49,76.4,49,76.4,49,76.4c0,0,0.1,0,0.2,0C49.1,76.4,49.1,76.4,49,76.4"/>
	<path class="st2" d="M35.9,84.9C35.9,84.9,35.9,84.8,35.9,84.9C35.9,84.8,35.9,84.9,35.9,84.9C35.9,84.9,35.9,84.9,35.9,84.9
		C35.9,84.9,35.9,84.9,35.9,84.9"/>
	<path class="st1" d="M38.7,86.1c-0.1,0-0.1,0-0.2-0.1c-0.1,0-0.2-0.1-0.3-0.1c0,0,0,0,0,0c-0.1,0-0.1-0.1-0.2-0.1c0,0-0.1,0-0.1,0
		c-0.4-0.2-0.7-0.3-1.1-0.5c-0.2-0.1-0.4-0.2-0.5-0.2c0,0,0,0,0,0c0.1,0.1,0.3,0.1,0.4,0.2C37,85.5,37.7,85.8,38.7,86.1"/>
	<path class="st1" d="M53.2,86.1c-0.1,0.1-0.2,0.2-0.3,0.2c0.1,0,0.1-0.1,0.2-0.1C53.2,86.1,53.2,86.1,53.2,86.1"/>
	<path class="st1" d="M55.4,76.7C55.4,76.8,55.4,76.8,55.4,76.7c0.1,0,0.1,0.1,0.2,0.1C55.5,76.8,55.5,76.8,55.4,76.7"/>
	<path class="st1" d="M52.8,72.9C52.9,72.9,52.9,72.8,52.8,72.9C52.9,72.8,52.9,72.9,52.8,72.9"/>
	<path class="st1" d="M36.2,85c-0.2-0.1-0.3-0.2-0.5-0.3c0,0,0.1,0.1,0.3,0.2l0,0c0,0,0,0,0,0C36,84.9,36.1,84.9,36.2,85"/>
	<path class="st1" d="M59.5,83.3c0.1-0.2,0.3-0.3,0.4-0.6c0,0,0,0,0,0c0,0,0,0-0.1,0C59.7,82.9,59.6,83.1,59.5,83.3"/>
	<path class="st1" d="M36.6,85.2c-0.1-0.1-0.3-0.2-0.4-0.2c-0.1,0-0.1-0.1-0.2-0.1c0,0,0,0,0,0c1,0.7,4.9,3.1,11.4,2.7
		c0.8,0,1.5-0.1,2.2-0.2c1.1-0.1,1.8-0.2,2.6-0.6c0.2-0.1,0.4-0.2,0.7-0.4c0.1,0,0.2-0.1,0.2-0.1c0,0,0,0-0.1,0c0,0,0,0,0,0
		c-0.2,0.1-0.4,0.3-0.6,0.4c-0.4,0.2-0.9,0.4-1.5,0.5c0.5-0.1,1-0.3,1.5-0.5c0.2-0.1,0.4-0.2,0.6-0.4c0.1-0.1,0.2-0.2,0.3-0.2
		c0.1-0.1,0.2-0.2,0.2-0.3c1.9-2,1.7-5.3,1.6-7.5c0-0.6,0-1.1,0-1.6c0,0,0.1-0.1,0.2-0.1c0.1,0,0.1,0,0.2,0.1c0,0,0,0,0,0.1
		c0.1,0,0.1,0,0.2,0.1c0,0-0.1-0.1-0.1-0.1c0.1,0.1,0.1,0.2,0.1,0.5c0,0.3,0.1,0.7,0.2,1.1l0,0.1c0,0.2,0.1,0.5,0.1,0.7
		c0.2,2.6,0,4.5-0.7,5.6l-0.4,0.6l0,0l0.2-0.1l0.5-0.1l0,0c0.4-0.2,0.7-0.2,1.1-0.4c0.4-0.1,0.8-0.2,1.2-0.3
		c0.4-0.1,0.8-0.3,1.2-0.6h0c0.2-0.1,0.3-0.3,0.5-0.5c0.1-0.1,0.2-0.3,0.3-0.5c0,0,0.1,0,0.1,0c0-0.1,0.1-0.2,0.1-0.3l0,0
		c0.1-0.4,0.1-0.7,0.1-1.1c0-0.2,0-0.4,0-0.6c0-0.3,0-0.7,0-1c0,0,0,0-0.1,0c-0.2-3.3-1.7-5.8-4.1-7.1c-1.3-0.5-2.2-0.3-2.9,0.1
		c0,0-0.1,0.1-0.1,0.1c0,0-0.1,0-0.1,0.1c-0.1,0.1-0.3,0.2-0.4,0.4c-0.7,0.7-1.1,1.8-1.5,3l-0.1,0.2l-0.1,0.3c0,0.1-0.1,0.2-0.1,0.3
		c-0.3,0.8-0.8,1.7-1.4,2.3c-0.7,0.8-1.3,1.3-2.1,2c-0.8,0.6-2.8,0.8-4.7,0.6c-4.1-0.5-6.1,1.6-6.8,2.7c0,0,0,0,0,0
		c0.2,0.1,0.3,0.2,0.5,0.3c0,0,0,0,0,0c0.2,0.1,0.4,0.2,0.5,0.2c0.4,0.2,0.8,0.3,1.1,0.5c0.1,0,0.1,0,0.2,0.1c0.1,0,0.1,0.1,0.2,0.1
		c0.1,0,0.2,0.1,0.3,0.1"/>
	<path class="st1" d="M55.9,72.6c2.4,1.2,3.9,3.8,4.1,7.1c0,0,0.1,0,0.1,0c0,0,0,0,0,0c0,0,0,0,0,0c0-0.7-0.2-1.4-0.3-2
		c-0.1-0.5-0.3-1-0.5-1.5c-0.1-0.2-0.1-0.3-0.2-0.4c-0.7-1.3-1.7-2.4-2.8-3c0,0-0.1,0-0.1,0c0,0-0.1,0-0.1-0.1
		C56,72.6,56,72.6,55.9,72.6c-1.2-0.6-2.2-0.3-2.9,0.1C53.7,72.3,54.6,72.2,55.9,72.6"/>
	<path class="st1" d="M52.9,86.3C52.9,86.3,52.9,86.3,52.9,86.3C52.9,86.3,53,86.3,52.9,86.3c0.1,0,0.1-0.1,0.2-0.1
		C53.1,86.2,53,86.3,52.9,86.3"/>
	<path class="st1" d="M35.9,84.9L35.9,84.9C36,84.9,36,84.9,35.9,84.9C36,84.9,36,84.9,35.9,84.9"/>
	<path class="st1" d="M56.2,78.1C56.2,78.1,56.2,78.1,56.2,78.1C56.2,78.1,56.2,78.1,56.2,78.1C56.2,78.1,56.2,78.1,56.2,78.1
		C56.2,78.1,56.2,78.1,56.2,78.1"/>
	<path class="st1" d="M55.9,78C55.9,78,55.9,78,55.9,78c0,0,0.1,0.1,0.1,0.1c0,0,0.1,0,0.1,0.1c0,0,0,0,0,0c0,0,0,0,0,0
		C56.1,78.1,56,78,55.9,78"/>
	<path class="st1" d="M56.2,78.1c0,0,0,0.1,0,0.1C56.2,78.2,56.2,78.2,56.2,78.1C56.2,78.1,56.2,78.1,56.2,78.1"/>
	<path class="st1" d="M43.1,87.3c0.2,0,0.4,0,0.6,0.1c0.2,0,0.5,0,0.7,0.1C44,87.4,43.6,87.4,43.1,87.3"/>
	<path class="st1" d="M38.2,85.9c-0.1,0-0.1,0-0.2-0.1c0,0,0,0-0.1,0C38,85.8,38.1,85.8,38.2,85.9"/>
	<path class="st1" d="M38,85.8c-0.1,0-0.1,0-0.2-0.1C37.9,85.7,37.9,85.8,38,85.8C38,85.8,38,85.8,38,85.8"/>
	<path class="st1" d="M38.5,86c0.1,0,0.1,0.1,0.2,0.1C38.6,86.1,38.5,86,38.5,86c-0.1,0-0.2-0.1-0.3-0.1c0,0,0,0,0,0
		C38.3,85.9,38.4,86,38.5,86"/>
	<path class="st1" d="M38.7,86.1C38.7,86.1,38.7,86.1,38.7,86.1C38.7,86.1,38.7,86.1,38.7,86.1C38.7,86.1,38.7,86.1,38.7,86.1"/>
	<path class="st1" d="M38.5,86c0.1,0,0.1,0.1,0.2,0.1C38.6,86.1,38.5,86,38.5,86"/>
	<path class="st1" d="M38.7,86.1C38.7,86.1,38.7,86.1,38.7,86.1"/>
	<path class="st1" d="M38.2,85.9c-0.1,0-0.1-0.1-0.2-0.1C38.1,85.8,38.1,85.8,38.2,85.9C38.2,85.9,38.2,85.9,38.2,85.9"/>
	<path class="st1" d="M38.2,85.9C38.2,85.9,38.2,85.9,38.2,85.9C38.2,85.9,38.2,85.9,38.2,85.9C38.2,85.9,38.2,85.9,38.2,85.9"/>
	<path class="st2" d="M62.9,79.2c0,0-2.8-3.5-5.6-6.8l0,0l0,0c-0.7-0.6-1.3-1.6-2.6-2.2c-1.5-0.7-1.4-1.1-3.5-1l-0.6,0.1
		c-1.3,0-2.7,1.3-4.8,1.8c-1.4-0.2-2.9-1.7-5-1.9c-0.3-0.1-0.2-0.1-0.9-0.2h0c-1,0-1.8,0.3-3,1c-2.6,1.5-3.9,4.5-6.3,6.9
		c-0.1,0.1-0.1,0.2-0.2,0.2c-0.2,0.2-0.6,0.7-0.7,0.8l-0.2,0.2c-0.2,0.3-0.4,0.5-0.6,0.8c-2.3,2.1-0.5,4.3-0.5,4.3
		c0.3,0.4,0.5,0.7,0.6,1c0,0,0,0,0,0c0.7,1.4,2,3.3,2.6,3.9c0.2,0.2,0.6,0.7,1.5,1.5c0.3,0.2,0.4,0.4,1,0.8c0.6,0.4,1.2,0.9,1.9,1.2
		c0.6,0.5,2,1.5,3.6,2c0.3,0.1,0.3,0.2,0.9,0.4c1.4,0.3,3.5,0.5,5.9,0.5c-0.2,0-0.3,0-0.5,0c1.6,0,3.2,0,5.2-0.5
		c0.2-0.1,0.2-0.1,0.9-0.4c1-0.4,2.2-1,3.6-2c0.6-0.4,1.3-0.8,1.9-1.2c0.3-0.2,0.2-0.2,1-0.8c0,0-0.1,0.1-0.1,0.1
		c0,0,0.1-0.1,0.1-0.1c0.2-0.1,0.3-0.3,0.5-0.4c0.3-0.3,0.5-0.5,0.7-0.7c0.1-0.1,0,0,0.4-0.4c-0.1,0-0.1,0.1-0.3,0.2
		c0.1-0.1,0.2-0.2,0.3-0.2c0,0,0.1-0.1,0.2-0.2c0,0,0,0,0,0v0c2-2.1,1.6-1.8,3.3-4.1C63.4,83.9,65.5,81.6,62.9,79.2 M49,76.4
		c0.1,0,0.1,0,0.2,0C49.1,76.4,49.1,76.4,49,76.4C49,76.4,49,76.4,49,76.4 M46.1,71.3C46.1,71.3,46.2,71.3,46.1,71.3
		C46.2,71.3,46.1,71.3,46.1,71.3C46.1,71.3,46.1,71.3,46.1,71.3C46.1,71.3,46.1,71.3,46.1,71.3 M47.1,94.6c1.2-0.1,2.3-0.2,2.9-0.3
		C49.4,94.4,48.4,94.6,47.1,94.6 M61.3,81.9c-0.6,0.5-0.6,0.5-1.4,0.8c0,0,0,0,0,0c-0.1,0.2-0.2,0.4-0.4,0.6
		c-0.1,0.2-0.3,0.4-0.5,0.5c-0.4,0.3-0.8,0.5-1.2,0.6c-0.4,0.1-0.8,0.2-1.2,0.3c-0.5,0.1-0.7,0.2-1.1,0.4l0,0c0,0,0,0,0,0l-0.5,0.1
		l-0.5,0.5c-0.3,0.1-0.6,0.2-0.9,0.3c-0.2,0.1-0.4,0.1-0.6,0.2c-0.1,0.1-0.1,0.1-0.2,0.1c-0.2,0.1-0.5,0.3-0.7,0.4
		c-0.8,0.4-1.5,0.5-2.6,0.6c-0.7,0-1.4,0.1-2.2,0.2c-6.5,0.4-10.4-2.1-11.4-2.7c0,0,0,0,0,0c0,0,0,0-0.1,0c0,0,0,0,0.1,0
		c0,0,0,0,0,0l0,0c-0.1-0.1-0.3-0.2-0.3-0.2c-0.2-0.1-0.4-0.2-0.7-0.3c-0.2-0.1-0.3-0.2-0.5-0.2c-0.3-0.1-0.5-0.3-0.7-0.5
		c-0.5-0.3-0.9-0.5-1.3-0.7l-1.7-1.4c-0.5-0.4-0.2-0.7,0.4-1.2c0.4-0.4,0.6-0.6,0.7-0.7c0.5-0.2,1.1-0.5,1.8-0.9c0,0,0.1,0,0.1-0.1
		c0.6-0.4,0.7-0.4,2.2-1.3c0,0,0,0,0,0c0,0,0,0,0.2-0.1c0-0.1,0-0.2-0.1-0.3c0,0,0-0.2,0-0.2c0,0,0.2-0.1,0.2-0.1
		c0.4-0.3,0.7-0.5,1.2-0.6c0.1,0,0.2-0.1,0.3-0.1c0.4,0,0.8,0,1.2,0.1c0.1,0,0.3,0,0.4,0.1c0,0,0,0.1,0,0.1c0,0.1,0,0.2,0,0.3
		c0.2,0,0.4,0.1,0.6,0.1c0,0,0.1,0,0.1,0c0-0.2,0-0.3,0-0.4c0,0,0,0,0,0c0,0,0.1,0,0.1,0c0.1,0,0.1,0,0.2,0c0.6,0.1,1.1,0.2,1.7,0.4
		c0.6,0.1,1.3,0.2,1.9,0.2c0.1,0,0.3,0,0.4,0c0.1,0,0.3,0,0.4,0c0,0,0,0,0,0c0,0.1,0,0.2,0,0.4c0.2,0,0.3,0,0.5,0c0,0,0.1,0,0.4,0
		c0-0.1,0-0.3,0-0.3c0.3,0,0.5,0,0.8,0l0.1,0c0.2,0,0.4,0,0.6,0c0.4,0,0.8-0.1,1.1-0.1c0.1,0,0.3,0,0.4-0.1c0.1,0,0.1,0,0.2,0
		c0,0,0,0,0,0c0.1,0,0.1,0,0.2,0c0.1,0,0.1,0,0.2,0c0.2,0,0.4-0.1,0.6-0.1c0.1,0,0.2,0,0.2,0c0,0.1,0,0.2-0.1,0.3c0.2,0,0.3,0,0.3,0
		c0.2,0,0.3-0.1,0.5-0.1c0.5-1.2,1-2.8,2-3.6c0,0,0.1,0,0.1-0.1c0,0,0.1-0.1,0.1-0.1c0.7-0.5,1.6-0.7,2.9-0.1c0,0,0.1,0,0.1,0
		c0,0,0.1,0,0.1,0.1c0,0,0,0,0.1,0c1.1,0.6,2.1,1.6,2.8,3c0.1,0.1,0.1,0.3,0.2,0.4c0.2,0.5,0.4,1,0.5,1.5c0.2,0.6,0.3,1.3,0.3,2
		c0,0,0,0,0,0c0,0,0,0,0,0c0.2,0.1,0.3,0.2,0.9,0.9C61.5,81.3,61.9,81.5,61.3,81.9"/>
</g>
</svg>
